<?xml version="1.0" ?><svg style="enable-background:new 0 0 512 512;" version="1.1" viewBox="0 0 512 512" xml:space="preserve" xmlns="http://www.w3.org/2000/svg" xmlns:xlink="http://www.w3.org/1999/xlink"><style type="text/css">
	.st0{fill:#1E1E1E;}
	.st1{fill:#464646;stroke:#21759B;stroke-width:2;stroke-miterlimit:10;}
	.st2{fill:#FFFFFF;}
</style><g id="Edges"/><g id="Background_Bottom"><g><path class="st0" d="M492.3,443.1c0,34.2-27.7,61.9-61.9,61.9H80.7c-34.2,0-61.9-27.7-61.9-61.9V93.4c0-34.2,27.7-61.9,61.9-61.9    h349.7c34.2,0,61.9,27.7,61.9,61.9V443.1z"/></g></g><g id="Background"><path class="st1" d="M492.3,418.4c0,34.2-27.7,61.9-61.9,61.9H80.7c-34.2,0-61.9-27.7-61.9-61.9V68.6c0-34.2,27.7-61.9,61.9-61.9   h349.7c34.2,0,61.9,27.7,61.9,61.9V418.4z"/></g><g id="Symbol"><g><polygon class="st2" points="212.5,297.7 69.5,297.7 137.4,177.2 280.4,177.2   "/><path class="st2" d="M442.1,263c-0.6,2.8-1.6,5.5-2.9,8.2c-4,8.1-10.8,12.5-20.4,12.7c-9.2,0.2-16.3-3.6-21-11.1    c-3.9-6.3-5-13.1-5-18c0.1-8.7,1-14.9,4.2-20.8c8-14.8,29.4-16.2,39.6-2.6c1.7,2.3,3,4.7,4,7.3h16.8c0,0,0,0,0,0    c0-1.3-0.6-5.5-0.8-6.3c-2.2-8.3-7-14.7-14.5-19.1c-7.8-4.6-16.4-6-25.3-5.8c-18.8,0.3-32.9,10.2-38.6,27.2    c-4,12.2-4.2,24.6,0,36.9c3.9,11.1,11.3,19,22.4,23.3c7.2,2.7,14.6,3.4,22.2,2.7c17.7-1.8,28.9-11.3,33.5-28.5    c0.2-0.9,1-4.8,1-5.9H442.1z"/><path class="st2" d="M360.4,226c-11.4-22-45.7-25.4-59.8-6c-0.3,0.1-0.7,0.3-1,0.4c0-14.4,0.1-28.9,0.1-43.3h-18.8l-0.1,120.5H299    c0,0,0-11,0-13c2.7,3,5.1,5.8,8.3,7.8c6.2,3.9,13.2,5,20.3,5.2c14,0.4,25.6-4.5,32.4-17.2C369.7,262.6,369.8,244.1,360.4,226z     M347.7,271c-3.8,8.1-10.1,12.5-19.1,12.7c-8.7,0.2-15.2-3.6-19.6-11.1c-3.6-6.3-4.7-13.1-4.7-18c0.1-8.7,1-14.9,3.9-20.8    c7.5-14.8,27.5-16.2,37-2.6c3,4.3,4.8,9.2,5.5,14.4C352,254.3,351.5,262.9,347.7,271z"/></g></g></svg>